<?xml version="1.0" encoding="UTF-8"?>
<svg id="a" data-name="Слой 1" xmlns="http://www.w3.org/2000/svg" viewBox="0 0 512 512">
  <defs>
    <style>
      .b {
        fill: #5f5f5f;
      }

      .c {
        fill: none;
      }

      .d {
        fill: #f7b966;
      }
    </style>
  </defs>
  <path class="c" d="M0,510.43V0H512V512c-170.67-.52-341.33-1.05-512-1.57Z"/>
  <path class="b" d="M232.43,200.71c3.84,20.27,6.69,47.78,2.57,79.71-3.43,26.59-10.28,45.39-8.87,45.83,1.68,.53,15.41-25.01,18.3-56.12,2.8-30.08-5.52-54.78-12-69.43Z"/>
  <path class="d" d="M291.34,381.42c-38.23-.33-66.87-8.69-103.07-9.79-66.45,12.55-72.21,12.49-17.24-28.75,16.53-39.69-14.42-117.77,12.4-147.42,113.35-47.46-36.86,221.83,142.03,132.92,95.48-103.35-125.78-243.71-171.93-131.32-25.11,26-45.72-62.91-59.3-78.13-26.42-43.28,36.84,8.11,54.71,14.92,61.35,2.1,124.08,8.38,181.77,28.69,109.1,38.54,85.35,220.66-39.37,218.87Z"/>
  <path class="b" d="M391.58,206.3c56.32,73.27,8.56,205.7-104.18,193.58-38.69-1-79.49-18.06-116.75-3.5-67.2,7.83-7.13-21.88,22.13-16.56,142.53,38.14,256.99-38.99,198.8-173.52Z"/>
  <path class="b" d="M163.97,203.44c9.54,16.98-8.36,17.07-19.65,7.44,7.02-1.05,19.25,1.76,19.65-7.44Z"/>
</svg>